<svg xmlns="http://www.w3.org/2000/svg" viewBox="0 0 400 220">
  <defs>
    <radialGradient id="bg" cx="50%" cy="50%" r="70%"><stop offset="0%" stop-color="#0e0520"/><stop offset="100%" stop-color="#060610"/></radialGradient>
    <filter id="glow"><feGaussianBlur stdDeviation="3" result="b"/><feMerge><feMergeNode in="b"/><feMergeNode in="SourceGraphic"/></feMerge></filter>
  </defs>
  <rect width="400" height="220" fill="url(#bg)"/>
  <g stroke="#1a0a35" stroke-width="0.5" opacity="0.6">
    <line x1="0" y1="55" x2="400" y2="55"/><line x1="0" y1="110" x2="400" y2="110"/><line x1="0" y1="165" x2="400" y2="165"/>
    <line x1="100" y1="0" x2="100" y2="220"/><line x1="200" y1="0" x2="200" y2="220"/><line x1="300" y1="0" x2="300" y2="220"/>
  </g>
  <rect x="120" y="18" width="160" height="180" rx="8" fill="#0a0320" stroke="#7c3aed" stroke-width="1.5" filter="url(#glow)"/>
  <rect x="130" y="30" width="140" height="8" rx="2" fill="#7c3aed" opacity="0.15"/>
  <rect x="130" y="30" width="80" height="8" rx="2" fill="#7c3aed" opacity="0.5"/>
  <rect x="130" y="46" width="140" height="6" rx="2" fill="#7c3aed" opacity="0.1"/>
  <rect x="130" y="46" width="110" height="6" rx="2" fill="#7c3aed" opacity="0.3"/>
  <rect x="130" y="60" width="140" height="6" rx="2" fill="#7c3aed" opacity="0.1"/>
  <rect x="130" y="60" width="95" height="6" rx="2" fill="#7c3aed" opacity="0.3"/>
  <line x1="120" y1="78" x2="280" y2="78" stroke="#7c3aed" stroke-width="0.8" opacity="0.3"/>
  <circle cx="148" cy="100" r="10" fill="#0a0320" stroke="#22c55e" stroke-width="1.5" filter="url(#glow)"/>
  <text x="148" y="104" font-family="'Courier New',monospace" font-size="11" fill="#22c55e" text-anchor="middle">✓</text>
  <rect x="166" y="93" width="100" height="6" rx="2" fill="#7c3aed" opacity="0.2"/>
  <rect x="166" y="93" width="70" height="6" rx="2" fill="#22c55e" opacity="0.4"/>
  <text x="274" y="100" font-family="'Courier New',monospace" font-size="8" fill="#22c55e" opacity="0.6">SRC:1</text>
  <circle cx="148" cy="122" r="10" fill="#0a0320" stroke="#22c55e" stroke-width="1.5" filter="url(#glow)"/>
  <text x="148" y="126" font-family="'Courier New',monospace" font-size="11" fill="#22c55e" text-anchor="middle">✓</text>
  <rect x="166" y="115" width="100" height="6" rx="2" fill="#7c3aed" opacity="0.2"/>
  <rect x="166" y="115" width="90" height="6" rx="2" fill="#22c55e" opacity="0.4"/>
  <text x="274" y="122" font-family="'Courier New',monospace" font-size="8" fill="#22c55e" opacity="0.6">SRC:2</text>
  <circle cx="148" cy="144" r="10" fill="#0a0320" stroke="#ef4444" stroke-width="1.5" filter="url(#glow)"/>
  <text x="148" y="148" font-family="'Courier New',monospace" font-size="11" fill="#ef4444" text-anchor="middle">✗</text>
  <rect x="166" y="137" width="100" height="6" rx="2" fill="#7c3aed" opacity="0.2"/>
  <rect x="166" y="137" width="55" height="6" rx="2" fill="#ef4444" opacity="0.4"/>
  <text x="274" y="144" font-family="'Courier New',monospace" font-size="8" fill="#ef4444" opacity="0.6">UNVERIFIED</text>
  <line x1="120" y1="162" x2="280" y2="162" stroke="#7c3aed" stroke-width="0.8" opacity="0.3"/>
  <rect x="134" y="170" width="60" height="18" rx="4" fill="#7c3aed" opacity="0.25"/>
  <text x="164" y="183" font-family="'Courier New',monospace" font-size="8" fill="#a78bfa" text-anchor="middle">RAG · GPT-4</text>
  <text x="16" y="210" font-family="'Courier New',monospace" font-size="8" fill="#7c3aed" opacity="0.35">// claim verification</text>
  <text x="384" y="210" font-family="'Courier New',monospace" font-size="8" fill="#7c3aed" opacity="0.3" text-anchor="end">Pinecone · FastAPI</text>
  <circle cx="16" cy="16" r="3" fill="#7c3aed" opacity="0.8"/><circle cx="26" cy="16" r="2" fill="#7c3aed" opacity="0.5"/><circle cx="34" cy="16" r="2" fill="#7c3aed" opacity="0.25"/>
</svg>
