<svg xmlns="http://www.w3.org/2000/svg" viewBox="0 0 400 220">
  <defs>
    <radialGradient id="bg" cx="50%" cy="50%" r="70%"><stop offset="0%" stop-color="#1a0505"/><stop offset="100%" stop-color="#060610"/></radialGradient>
    <filter id="glow"><feGaussianBlur stdDeviation="2.5" result="b"/><feMerge><feMergeNode in="b"/><feMergeNode in="SourceGraphic"/></feMerge></filter>
  </defs>
  <rect width="400" height="220" fill="url(#bg)"/>
  <g stroke="#1a0505" stroke-width="0.5" opacity="0.6">
    <line x1="0" y1="55" x2="400" y2="55"/><line x1="0" y1="110" x2="400" y2="110"/><line x1="0" y1="165" x2="400" y2="165"/>
    <line x1="100" y1="0" x2="100" y2="220"/><line x1="200" y1="0" x2="200" y2="220"/><line x1="300" y1="0" x2="300" y2="220"/>
  </g>
  <text x="40" y="22" font-family="'Courier New',monospace" font-size="8" fill="#ff6b6b" opacity="0.5" text-anchor="middle">INPUT</text>
  <text x="200" y="22" font-family="'Courier New',monospace" font-size="8" fill="#ff6b6b" opacity="0.5" text-anchor="middle">HIDDEN</text>
  <text x="360" y="22" font-family="'Courier New',monospace" font-size="8" fill="#ff6b6b" opacity="0.5" text-anchor="middle">OUTPUT</text>
  <circle cx="40" cy="55" r="12" fill="#1a0505" stroke="#ff6b6b" stroke-width="1.5" filter="url(#glow)"/>
  <circle cx="40" cy="85" r="12" fill="#1a0505" stroke="#ff6b6b" stroke-width="1.5" filter="url(#glow)"/>
  <circle cx="40" cy="115" r="12" fill="#1a0505" stroke="#ff6b6b" stroke-width="1.5" filter="url(#glow)"/>
  <circle cx="40" cy="145" r="12" fill="#1a0505" stroke="#ff6b6b" stroke-width="1.5" filter="url(#glow)"/>
  <circle cx="40" cy="175" r="12" fill="#1a0505" stroke="#ff6b6b" stroke-width="1.5" filter="url(#glow)"/>
  <circle cx="140" cy="65" r="12" fill="#1a0505" stroke="#ff6b6b" stroke-width="1.2"/>
  <circle cx="140" cy="95" r="12" fill="#1a0505" stroke="#ff6b6b" stroke-width="1.2"/>
  <circle cx="140" cy="125" r="12" fill="#1a0505" stroke="#ff6b6b" stroke-width="1.2"/>
  <circle cx="140" cy="155" r="12" fill="#1a0505" stroke="#ff6b6b" stroke-width="1.2"/>
  <circle cx="250" cy="75" r="12" fill="#1a0505" stroke="#ff6b6b" stroke-width="1.2"/>
  <circle cx="250" cy="115" r="12" fill="#1a0505" stroke="#ff6b6b" stroke-width="1.2"/>
  <circle cx="250" cy="155" r="12" fill="#1a0505" stroke="#ff6b6b" stroke-width="1.2"/>
  <circle cx="360" cy="85" r="14" fill="#1a0505" stroke="#ff6b6b" stroke-width="2" filter="url(#glow)"/>
  <text x="360" y="89" font-family="'Courier New',monospace" font-size="7" fill="#ff6b6b" text-anchor="middle">GREET</text>
  <circle cx="360" cy="125" r="14" fill="#1a0505" stroke="#ff6b6b" stroke-width="2" filter="url(#glow)"/>
  <text x="360" y="129" font-family="'Courier New',monospace" font-size="7" fill="#ff6b6b" text-anchor="middle">HELP</text>
  <circle cx="360" cy="165" r="14" fill="#1a0505" stroke="#ff6b6b" stroke-width="2" filter="url(#glow)"/>
  <text x="360" y="169" font-family="'Courier New',monospace" font-size="7" fill="#ff6b6b" text-anchor="middle">QUERY</text>
  <g stroke="#ff6b6b" stroke-width="0.5" opacity="0.2">
    <line x1="52" y1="55" x2="128" y2="65"/><line x1="52" y1="55" x2="128" y2="95"/><line x1="52" y1="55" x2="128" y2="125"/>
    <line x1="52" y1="85" x2="128" y2="65"/><line x1="52" y1="85" x2="128" y2="95"/><line x1="52" y1="85" x2="128" y2="155"/>
    <line x1="52" y1="115" x2="128" y2="95"/><line x1="52" y1="115" x2="128" y2="125"/><line x1="52" y1="115" x2="128" y2="155"/>
    <line x1="52" y1="145" x2="128" y2="125"/><line x1="52" y1="145" x2="128" y2="155"/>
    <line x1="52" y1="175" x2="128" y2="155"/>
    <line x1="152" y1="65" x2="238" y2="75"/><line x1="152" y1="65" x2="238" y2="115"/><line x1="152" y1="95" x2="238" y2="75"/>
    <line x1="152" y1="95" x2="238" y2="115"/><line x1="152" y1="125" x2="238" y2="115"/><line x1="152" y1="125" x2="238" y2="155"/>
    <line x1="152" y1="155" x2="238" y2="115"/><line x1="152" y1="155" x2="238" y2="155"/>
    <line x1="262" y1="75" x2="346" y2="85"/><line x1="262" y1="75" x2="346" y2="125"/>
    <line x1="262" y1="115" x2="346" y2="85"/><line x1="262" y1="115" x2="346" y2="125"/><line x1="262" y1="115" x2="346" y2="165"/>
    <line x1="262" y1="155" x2="346" y2="125"/><line x1="262" y1="155" x2="346" y2="165"/>
  </g>
  <text x="16" y="210" font-family="'Courier New',monospace" font-size="8" fill="#ff6b6b" opacity="0.35">// intent recognition</text>
  <text x="384" y="210" font-family="'Courier New',monospace" font-size="8" fill="#ff6b6b" opacity="0.3" text-anchor="end">TensorFlow · NLTK · Flask</text>
  <circle cx="16" cy="16" r="3" fill="#ff6b6b" opacity="0.8"/><circle cx="26" cy="16" r="2" fill="#ff6b6b" opacity="0.5"/><circle cx="34" cy="16" r="2" fill="#ff6b6b" opacity="0.25"/>
</svg>
