<svg xmlns="http://www.w3.org/2000/svg" viewBox="0 0 400 220">
  <defs>
    <radialGradient id="bg" cx="50%" cy="50%" r="70%"><stop offset="0%" stop-color="#040e1a"/><stop offset="100%" stop-color="#060610"/></radialGradient>
    <filter id="glow"><feGaussianBlur stdDeviation="2.5" result="b"/><feMerge><feMergeNode in="b"/><feMergeNode in="SourceGraphic"/></feMerge></filter>
  </defs>
  <rect width="400" height="220" fill="url(#bg)"/>
  <g stroke="#040e1a" stroke-width="0.5" opacity="0.6">
    <line x1="0" y1="55" x2="400" y2="55"/><line x1="0" y1="110" x2="400" y2="110"/><line x1="0" y1="165" x2="400" y2="165"/>
    <line x1="100" y1="0" x2="100" y2="220"/><line x1="200" y1="0" x2="200" y2="220"/><line x1="300" y1="0" x2="300" y2="220"/>
  </g>
  <text x="70" y="26" font-family="'Courier New',monospace" font-size="8" fill="#60a5fa" text-anchor="middle" opacity="0.5">STUDENTS</text>
  <text x="330" y="26" font-family="'Courier New',monospace" font-size="8" fill="#60a5fa" text-anchor="middle" opacity="0.5">MENTORS</text>
  <circle cx="70" cy="60" r="14" fill="#040e1a" stroke="#60a5fa" stroke-width="1.5" filter="url(#glow)"/>
  <text x="70" y="64" font-family="'Courier New',monospace" font-size="9" fill="#60a5fa" text-anchor="middle">S1</text>
  <circle cx="70" cy="100" r="14" fill="#040e1a" stroke="#60a5fa" stroke-width="1.5" filter="url(#glow)"/>
  <text x="70" y="104" font-family="'Courier New',monospace" font-size="9" fill="#60a5fa" text-anchor="middle">S2</text>
  <circle cx="70" cy="140" r="14" fill="#040e1a" stroke="#60a5fa" stroke-width="1.5" filter="url(#glow)"/>
  <text x="70" y="144" font-family="'Courier New',monospace" font-size="9" fill="#60a5fa" text-anchor="middle">S3</text>
  <circle cx="70" cy="180" r="14" fill="#040e1a" stroke="#60a5fa" stroke-width="1.5" filter="url(#glow)"/>
  <text x="70" y="184" font-family="'Courier New',monospace" font-size="9" fill="#60a5fa" text-anchor="middle">S4</text>
  <circle cx="330" cy="70" r="14" fill="#040e1a" stroke="#a78bfa" stroke-width="1.5" filter="url(#glow)"/>
  <text x="330" y="74" font-family="'Courier New',monospace" font-size="9" fill="#a78bfa" text-anchor="middle">M1</text>
  <circle cx="330" cy="120" r="14" fill="#040e1a" stroke="#a78bfa" stroke-width="1.5" filter="url(#glow)"/>
  <text x="330" y="124" font-family="'Courier New',monospace" font-size="9" fill="#a78bfa" text-anchor="middle">M2</text>
  <circle cx="330" cy="170" r="14" fill="#040e1a" stroke="#a78bfa" stroke-width="1.5" filter="url(#glow)"/>
  <text x="330" y="174" font-family="'Courier New',monospace" font-size="9" fill="#a78bfa" text-anchor="middle">M3</text>
  <g stroke="#60a5fa" stroke-width="1" opacity="0.35">
    <line x1="84" y1="60" x2="316" y2="70"/>
    <line x1="84" y1="100" x2="316" y2="120"/>
    <line x1="84" y1="140" x2="316" y2="70"/>
    <line x1="84" y1="180" x2="316" y2="170"/>
  </g>
  <line x1="84" y1="60" x2="316" y2="70" stroke="#60a5fa" stroke-width="2" opacity="0.7"/>
  <line x1="84" y1="100" x2="316" y2="120" stroke="#60a5fa" stroke-width="2" opacity="0.7"/>
  <line x1="84" y1="180" x2="316" y2="170" stroke="#60a5fa" stroke-width="2" opacity="0.7"/>
  <rect x="170" y="88" width="60" height="22" rx="11" fill="#040e1a" stroke="#60a5fa" stroke-width="1" filter="url(#glow)"/>
  <text x="200" y="103" font-family="'Courier New',monospace" font-size="8" fill="#60a5fa" text-anchor="middle">MATCH</text>
  <rect x="166" y="128" width="68" height="22" rx="11" fill="#040e1a" stroke="#60a5fa" stroke-width="1" filter="url(#glow)"/>
  <text x="200" y="143" font-family="'Courier New',monospace" font-size="8" fill="#60a5fa" text-anchor="middle">NLP · 97%</text>
  <text x="16" y="210" font-family="'Courier New',monospace" font-size="8" fill="#60a5fa" opacity="0.35">// mentor matching</text>
  <text x="384" y="210" font-family="'Courier New',monospace" font-size="8" fill="#60a5fa" opacity="0.3" text-anchor="end">WebSockets · Redis · NLP</text>
  <circle cx="16" cy="16" r="3" fill="#60a5fa" opacity="0.8"/><circle cx="26" cy="16" r="2" fill="#60a5fa" opacity="0.5"/><circle cx="34" cy="16" r="2" fill="#60a5fa" opacity="0.25"/>
</svg>
