<svg xmlns="http://www.w3.org/2000/svg" viewBox="0 0 400 220">
  <defs>
    <radialGradient id="bg" cx="50%" cy="50%" r="70%"><stop offset="0%" stop-color="#001a18"/><stop offset="100%" stop-color="#060610"/></radialGradient>
    <filter id="glow"><feGaussianBlur stdDeviation="4" result="b"/><feMerge><feMergeNode in="b"/><feMergeNode in="SourceGraphic"/></feMerge></filter>
    <radialGradient id="orb" cx="50%" cy="50%" r="50%"><stop offset="0%" stop-color="#00ffe0" stop-opacity="0.25"/><stop offset="100%" stop-color="#00ffe0" stop-opacity="0"/></radialGradient>
  </defs>
  <rect width="400" height="220" fill="url(#bg)"/>
  <g stroke="#001a18" stroke-width="0.5" opacity="0.6">
    <line x1="0" y1="55" x2="400" y2="55"/><line x1="0" y1="110" x2="400" y2="110"/><line x1="0" y1="165" x2="400" y2="165"/>
    <line x1="100" y1="0" x2="100" y2="220"/><line x1="200" y1="0" x2="200" y2="220"/><line x1="300" y1="0" x2="300" y2="220"/>
  </g>
  <circle cx="200" cy="100" r="70" fill="url(#orb)"/>
  <circle cx="200" cy="100" r="50" fill="none" stroke="#00ffe0" stroke-width="1" opacity="0.15"/>
  <circle cx="200" cy="100" r="35" fill="none" stroke="#00ffe0" stroke-width="1" opacity="0.25"/>
  <circle cx="200" cy="100" r="20" fill="#001a18" stroke="#00ffe0" stroke-width="1.5" filter="url(#glow)" opacity="0.9"/>
  <text x="200" y="104" font-family="'Courier New',monospace" font-size="9" fill="#00ffe0" text-anchor="middle">🎤</text>
  <g stroke="#00ffe0" stroke-width="1.5" stroke-linecap="round" opacity="0.7">
    <line x1="50" y1="100" x2="50" y2="100"/>
    <line x1="60" y1="92" x2="60" y2="108"/>
    <line x1="70" y1="86" x2="70" y2="114"/>
    <line x1="80" y1="94" x2="80" y2="106"/>
    <line x1="90" y1="82" x2="90" y2="118"/>
    <line x1="100" y1="90" x2="100" y2="110"/>
    <line x1="110" y1="80" x2="110" y2="120"/>
    <line x1="120" y1="88" x2="120" y2="112"/>
    <line x1="130" y1="96" x2="130" y2="104"/>
    <line x1="290" y1="96" x2="290" y2="104"/>
    <line x1="300" y1="88" x2="300" y2="112"/>
    <line x1="310" y1="80" x2="310" y2="120"/>
    <line x1="320" y1="90" x2="320" y2="110"/>
    <line x1="330" y1="82" x2="330" y2="118"/>
    <line x1="340" y1="94" x2="340" y2="106"/>
    <line x1="350" y1="86" x2="350" y2="114"/>
  </g>
  <text x="200" y="160" font-family="'Courier New',monospace" font-size="10" fill="#00ffe0" text-anchor="middle" opacity="0.6" filter="url(#glow)">VOICE  →  INTENT  →  ACTION</text>
  <text x="16" y="210" font-family="'Courier New',monospace" font-size="8" fill="#00ffe0" opacity="0.35">// voice AI assistant</text>
  <text x="384" y="210" font-family="'Courier New',monospace" font-size="8" fill="#00ffe0" opacity="0.3" text-anchor="end">Whisper · FastAPI · Docker</text>
  <circle cx="16" cy="16" r="3" fill="#00ffe0" opacity="0.8"/><circle cx="26" cy="16" r="2" fill="#00ffe0" opacity="0.5"/><circle cx="34" cy="16" r="2" fill="#00ffe0" opacity="0.25"/>
</svg>
