<svg xmlns="http://www.w3.org/2000/svg" viewBox="0 0 400 220">
  <defs>
    <radialGradient id="bg" cx="50%" cy="50%" r="70%"><stop offset="0%" stop-color="#041018"/><stop offset="100%" stop-color="#060610"/></radialGradient>
    <filter id="glow"><feGaussianBlur stdDeviation="2.5" result="b"/><feMerge><feMergeNode in="b"/><feMergeNode in="SourceGraphic"/></feMerge></filter>
  </defs>
  <rect width="400" height="220" fill="url(#bg)"/>
  <g stroke="#041018" stroke-width="0.5" opacity="0.6">
    <line x1="0" y1="55" x2="400" y2="55"/><line x1="0" y1="110" x2="400" y2="110"/><line x1="0" y1="165" x2="400" y2="165"/>
    <line x1="100" y1="0" x2="100" y2="220"/><line x1="200" y1="0" x2="200" y2="220"/><line x1="300" y1="0" x2="300" y2="220"/>
  </g>
  <g stroke="#00b4d8" stroke-width="1" opacity="0.4">
    <line x1="60" y1="30" x2="340" y2="30"/><line x1="60" y1="60" x2="340" y2="60"/>
    <line x1="60" y1="90" x2="340" y2="90"/><line x1="60" y1="120" x2="340" y2="120"/>
    <line x1="60" y1="150" x2="340" y2="150"/><line x1="60" y1="180" x2="340" y2="180"/>
    <line x1="60" y1="30" x2="60" y2="180"/><line x1="100" y1="30" x2="100" y2="180"/>
    <line x1="140" y1="30" x2="140" y2="180"/><line x1="180" y1="30" x2="180" y2="180"/>
    <line x1="220" y1="30" x2="220" y2="180"/><line x1="260" y1="30" x2="260" y2="180"/>
    <line x1="300" y1="30" x2="300" y2="180"/><line x1="340" y1="30" x2="340" y2="180"/>
  </g>
  <rect x="64" y="34" width="32" height="22" rx="3" fill="#00b4d8" opacity="0.35" filter="url(#glow)"/>
  <rect x="104" y="34" width="32" height="22" rx="3" fill="#00b4d8" opacity="0.35"/>
  <rect x="64" y="64" width="32" height="22" rx="3" fill="#00b4d8" opacity="0.35"/>
  <rect x="184" y="34" width="32" height="22" rx="3" fill="#00b4d8" opacity="0.2"/>
  <rect x="224" y="64" width="32" height="22" rx="3" fill="#00b4d8" opacity="0.35"/>
  <rect x="264" y="34" width="32" height="22" rx="3" fill="#00b4d8" opacity="0.35"/>
  <rect x="304" y="64" width="32" height="22" rx="3" fill="#00b4d8" opacity="0.2"/>
  <rect x="144" y="64" width="32" height="22" rx="3" fill="#00b4d8" opacity="0.35"/>
  <rect x="264" y="64" width="32" height="22" rx="3" fill="#00b4d8" opacity="0.2"/>
  <text x="80" y="49" font-family="'Courier New',monospace" font-size="7" fill="#00b4d8" text-anchor="middle" font-weight="bold">P</text>
  <g transform="translate(230,100)" opacity="0.85">
    <rect width="60" height="60" rx="4" fill="#041018" stroke="#00b4d8" stroke-width="1.5" filter="url(#glow)"/>
    <rect x="6" y="6" width="8" height="8" fill="#00b4d8"/><rect x="16" y="6" width="4" height="4" fill="#00b4d8"/>
    <rect x="22" y="6" width="8" height="8" fill="#00b4d8"/><rect x="16" y="12" width="4" height="4" fill="#00b4d8"/>
    <rect x="6" y="16" width="4" height="4" fill="#00b4d8"/><rect x="12" y="16" width="4" height="8" fill="#00b4d8"/>
    <rect x="20" y="18" width="4" height="4" fill="#00b4d8"/>
    <rect x="6" y="22" width="8" height="8" fill="#00b4d8"/><rect x="22" y="22" width="4" height="4" fill="#00b4d8"/>
    <rect x="28" y="6" width="4" height="12" fill="#00b4d8"/><rect x="34" y="6" width="8" height="4" fill="#00b4d8"/>
    <rect x="34" y="14" width="4" height="4" fill="#00b4d8"/><rect x="40" y="6" width="4" height="8" fill="#00b4d8"/>
    <rect x="28" y="22" width="8" height="8" fill="#00b4d8"/><rect x="38" y="22" width="6" height="4" fill="#00b4d8"/>
    <rect x="6" y="34" width="12" height="4" fill="#00b4d8"/><rect x="20" y="34" width="4" height="12" fill="#00b4d8"/>
    <rect x="6" y="40" width="4" height="8" fill="#00b4d8"/><rect x="12" y="44" width="6" height="4" fill="#00b4d8"/>
    <rect x="26" y="40" width="8" height="4" fill="#00b4d8"/><rect x="36" y="34" width="8" height="8" fill="#00b4d8"/>
    <rect x="46" y="38" width="8" height="4" fill="#00b4d8"/><rect x="28" y="48" width="4" height="6" fill="#00b4d8"/>
    <rect x="34" y="44" width="6" height="8" fill="#00b4d8"/><rect x="42" y="46" width="8" height="8" fill="#00b4d8"/>
  </g>
  <text x="16" y="210" font-family="'Courier New',monospace" font-size="8" fill="#00b4d8" opacity="0.35">// smart parking</text>
  <text x="384" y="210" font-family="'Courier New',monospace" font-size="8" fill="#00b4d8" opacity="0.3" text-anchor="end">Android · Java · QR</text>
  <circle cx="16" cy="16" r="3" fill="#00b4d8" opacity="0.8"/><circle cx="26" cy="16" r="2" fill="#00b4d8" opacity="0.5"/><circle cx="34" cy="16" r="2" fill="#00b4d8" opacity="0.25"/>
</svg>
