<svg width="1400" height="900" viewBox="0 0 1400 900" fill="none" xmlns="http://www.w3.org/2000/svg">
  <defs>
    <linearGradient id="bg" x1="0" y1="0" x2="1400" y2="900" gradientUnits="userSpaceOnUse">
      <stop stop-color="#0B1720"/>
      <stop offset="1" stop-color="#12293A"/>
    </linearGradient>
    <linearGradient id="card" x1="0" y1="0" x2="1" y2="1">
      <stop stop-color="#1A3246"/>
      <stop offset="1" stop-color="#13293B"/>
    </linearGradient>
  </defs>
  <rect width="1400" height="900" fill="url(#bg)"/>
  <rect x="80" y="70" width="1240" height="760" rx="28" fill="#0F2230" stroke="#2B4D66" stroke-width="2"/>
  <rect x="80" y="70" width="1240" height="88" rx="28" fill="#153247"/>
  <circle cx="126" cy="114" r="12" fill="#38B27A"/>
  <circle cx="166" cy="114" r="12" fill="#66C99A"/>
  <circle cx="206" cy="114" r="12" fill="#97E2BF"/>
  <text x="260" y="122" fill="#D8E9F5" font-family="Arial, sans-serif" font-size="34" font-weight="700">SyncBoard</text>

  <rect x="120" y="190" width="360" height="590" rx="20" fill="url(#card)" stroke="#2F5D79"/>
  <rect x="520" y="190" width="360" height="590" rx="20" fill="url(#card)" stroke="#2F5D79"/>
  <rect x="920" y="190" width="360" height="590" rx="20" fill="url(#card)" stroke="#2F5D79"/>

  <text x="145" y="240" fill="#7DE5B8" font-family="Arial, sans-serif" font-size="26" font-weight="700">To Do</text>
  <text x="545" y="240" fill="#7DE5B8" font-family="Arial, sans-serif" font-size="26" font-weight="700">In Progress</text>
  <text x="945" y="240" fill="#7DE5B8" font-family="Arial, sans-serif" font-size="26" font-weight="700">Done</text>

  <rect x="145" y="270" width="310" height="120" rx="14" fill="#21445C"/>
  <rect x="145" y="410" width="310" height="120" rx="14" fill="#21445C"/>
  <rect x="145" y="550" width="310" height="120" rx="14" fill="#21445C"/>

  <rect x="545" y="270" width="310" height="120" rx="14" fill="#21445C"/>
  <rect x="545" y="410" width="310" height="120" rx="14" fill="#21445C"/>
  <rect x="545" y="550" width="310" height="120" rx="14" fill="#21445C"/>

  <rect x="945" y="270" width="310" height="120" rx="14" fill="#21445C"/>
  <rect x="945" y="410" width="310" height="120" rx="14" fill="#21445C"/>
  <rect x="945" y="550" width="310" height="120" rx="14" fill="#21445C"/>

  <text x="170" y="320" fill="#D7EAF5" font-family="Arial, sans-serif" font-size="20">JWT auth setup</text>
  <text x="170" y="460" fill="#D7EAF5" font-family="Arial, sans-serif" font-size="20">CRUD task modal</text>
  <text x="170" y="600" fill="#D7EAF5" font-family="Arial, sans-serif" font-size="20">GitHub webhook</text>

  <text x="570" y="320" fill="#D7EAF5" font-family="Arial, sans-serif" font-size="20">Mongo query tune</text>
  <text x="570" y="460" fill="#D7EAF5" font-family="Arial, sans-serif" font-size="20">Role permissions</text>
  <text x="570" y="600" fill="#D7EAF5" font-family="Arial, sans-serif" font-size="20">API performance</text>

  <text x="970" y="320" fill="#D7EAF5" font-family="Arial, sans-serif" font-size="20">Sprint review</text>
  <text x="970" y="460" fill="#D7EAF5" font-family="Arial, sans-serif" font-size="20">Merged PR #87</text>
  <text x="970" y="600" fill="#D7EAF5" font-family="Arial, sans-serif" font-size="20">Deploy success</text>
</svg>
