<svg xmlns="http://www.w3.org/2000/svg" viewBox="0 0 400 220">
  <defs>
    <radialGradient id="bg" cx="50%" cy="40%" r="70%"><stop offset="0%" stop-color="#1a0c00"/><stop offset="100%" stop-color="#060610"/></radialGradient>
    <filter id="glow"><feGaussianBlur stdDeviation="3" result="b"/><feMerge><feMergeNode in="b"/><feMergeNode in="SourceGraphic"/></feMerge></filter>
  </defs>
  <rect width="400" height="220" fill="url(#bg)"/>
  <g stroke="#1a0a00" stroke-width="0.5" opacity="0.6">
    <line x1="0" y1="55" x2="400" y2="55"/><line x1="0" y1="110" x2="400" y2="110"/><line x1="0" y1="165" x2="400" y2="165"/>
    <line x1="100" y1="0" x2="100" y2="220"/><line x1="200" y1="0" x2="200" y2="220"/><line x1="300" y1="0" x2="300" y2="220"/>
  </g>
  <rect x="150" y="22" width="100" height="32" rx="6" fill="#120800" stroke="#f97316" stroke-width="1.5" filter="url(#glow)"/>
  <text x="200" y="43" font-family="'Courier New',monospace" font-size="11" fill="#f97316" text-anchor="middle" font-weight="bold">WIAL GLOBAL</text>
  <line x1="200" y1="54" x2="100" y2="88" stroke="#f97316" stroke-width="1" opacity="0.4"/>
  <line x1="200" y1="54" x2="200" y2="88" stroke="#f97316" stroke-width="1" opacity="0.4"/>
  <line x1="200" y1="54" x2="300" y2="88" stroke="#f97316" stroke-width="1" opacity="0.4"/>
  <rect x="60" y="88" width="80" height="28" rx="5" fill="#120800" stroke="#f97316" stroke-width="1.2"/>
  <text x="100" y="106" font-family="'Courier New',monospace" font-size="9" fill="#f97316" text-anchor="middle">ADMIN</text>
  <rect x="160" y="88" width="80" height="28" rx="5" fill="#120800" stroke="#f97316" stroke-width="1.2"/>
  <text x="200" y="106" font-family="'Courier New',monospace" font-size="9" fill="#f97316" text-anchor="middle">CHAPTER</text>
  <rect x="260" y="88" width="80" height="28" rx="5" fill="#120800" stroke="#f97316" stroke-width="1.2"/>
  <text x="300" y="106" font-family="'Courier New',monospace" font-size="9" fill="#f97316" text-anchor="middle">COACH</text>
  <line x1="100" y1="116" x2="70" y2="148" stroke="#f97316" stroke-width="0.8" opacity="0.3"/>
  <line x1="100" y1="116" x2="130" y2="148" stroke="#f97316" stroke-width="0.8" opacity="0.3"/>
  <line x1="200" y1="116" x2="200" y2="148" stroke="#f97316" stroke-width="0.8" opacity="0.3"/>
  <line x1="300" y1="116" x2="270" y2="148" stroke="#f97316" stroke-width="0.8" opacity="0.3"/>
  <line x1="300" y1="116" x2="330" y2="148" stroke="#f97316" stroke-width="0.8" opacity="0.3"/>
  <circle cx="70" cy="156" r="12" fill="#120800" stroke="#f97316" stroke-width="1" opacity="0.7"/><text x="70" y="160" font-family="'Courier New',monospace" font-size="7" fill="#f97316" text-anchor="middle">EVENT</text>
  <circle cx="130" cy="156" r="12" fill="#120800" stroke="#f97316" stroke-width="1" opacity="0.7"/><text x="130" y="160" font-family="'Courier New',monospace" font-size="7" fill="#f97316" text-anchor="middle">PAY</text>
  <circle cx="200" cy="156" r="12" fill="#120800" stroke="#f97316" stroke-width="1" opacity="0.7"/><text x="200" y="160" font-family="'Courier New',monospace" font-size="7" fill="#f97316" text-anchor="middle">CMS</text>
  <circle cx="270" cy="156" r="12" fill="#120800" stroke="#f97316" stroke-width="1" opacity="0.7"/><text x="270" y="160" font-family="'Courier New',monospace" font-size="7" fill="#f97316" text-anchor="middle">ROLE</text>
  <circle cx="330" cy="156" r="12" fill="#120800" stroke="#f97316" stroke-width="1" opacity="0.7"/><text x="330" y="160" font-family="'Courier New',monospace" font-size="7" fill="#f97316" text-anchor="middle">AI</text>
  <text x="16" y="210" font-family="'Courier New',monospace" font-size="8" fill="#f97316" opacity="0.35">// nonprofit platform</text>
  <text x="384" y="210" font-family="'Courier New',monospace" font-size="8" fill="#f97316" opacity="0.3" text-anchor="end">Next.js · Supabase · Stripe</text>
  <circle cx="16" cy="16" r="3" fill="#f97316" opacity="0.8"/><circle cx="26" cy="16" r="2" fill="#f97316" opacity="0.5"/><circle cx="34" cy="16" r="2" fill="#f97316" opacity="0.25"/>
</svg>
